<svg width="1322" height="300" viewBox="0 0 1322 300" fill="none" xmlns="http://www.w3.org/2000/svg">
<rect width="1322" height="300" fill="#C4C4C4"/>
<rect x="-34" y="-93" width="1395" height="761" fill="#FFFFFE"/>
<path d="M-8.99097 19C-8.99097 72.4697 -279.474 345.333 651.704 277.418C928.781 277.418 1284.03 302.077 1338 171.963C1347.03 150.184 1347.63 124.068 1338 92.7741C1331.47 71.5391 1351.5 33.2664 1335 7C1335 -46.4697 1081.61 212.395 726.679 212.395C371.752 212.395 -8.99097 -34.4698 -8.99097 19Z" fill="#F2F4F6"/>
<path d="M-8.99097 19C-8.99097 72.4697 -279.474 345.333 651.704 277.418C928.781 277.418 1284.03 302.077 1338 171.963V310L-64 298V160V21.6535L-45.5 18.9999L-8.99097 19Z" fill="#F2F4F6"/>
<path d="M1335 7L1338 21.6535V92.7741C1331.47 71.5391 1351.5 33.2664 1335 7Z" fill="#F2F4F6"/>
<path d="M1354 0V313H-69V12.9793H4.92208V17.4721L457.445 217.652L744.642 240.116L1211.15 136.282L1294.06 17.4721L1325.5 0H1339.5H1354Z" fill="#F2F4F6"/>
</svg>
